# xmcd CD database file
#
# Track frame offsets:
#	150
#	23700
#	42735
#	79683
#	109344
#	132882
#	160698
#	194288
#	222440
#	257057
#
# Disc length: 3799 seconds
#
# Revision: 0
# Processed by: cddbd v1.5.1PL2 Copyright (c) Steve Scherf et al.
# Submitted via: CDex 1.51
#
DISCID=890ed50a
DTITLE=Bertil Strandberg - Roads Traveled
DYEAR=2004
DGENRE=Jazz
TTITLE0=Cat walk
TTITLE1=The source
TTITLE2=Three in the morning
TTITLE3=Just being
TTITLE4=Saluting O.P.B
TTITLE5=Windows
TTITLE6=Joshua
TTITLE7=If you could see me now
TTITLE8=Jitterbug waltz
TTITLE9=Waltz blue
EXTD=YEAR: 2004
EXTT0=
EXTT1=
EXTT2=
EXTT3=
EXTT4=
EXTT5=
EXTT6=
EXTT7=
EXTT8=
EXTT9=
PLAYORDER=
